<svg xmlns="http://www.w3.org/2000/svg" width="28" height="28" viewBox="0 0 28 28">
  <g id="Group_4382" data-name="Group 4382" transform="translate(-643.75 -2409.625)">
    <path id="Path_4650" data-name="Path 4650" d="M10.347,14.815a1.445,1.445,0,0,0,0,1.92l6.2,6.708a1.181,1.181,0,0,0,1.724.042l6.113-6.609a1.441,1.441,0,0,0,.006-1.92,1.182,1.182,0,0,0-1.77,0l-5.251,5.611-5.258-5.759A1.182,1.182,0,0,0,10.347,14.815Z" transform="translate(639.679 2441) rotate(-90)" fill="#fff"/>
    <path id="Path_4651" data-name="Path 4651" d="M3.375,17.375a14,14,0,1,0,14-14A14,14,0,0,0,3.375,17.375ZM25.748,9A11.841,11.841,0,1,1,9,25.748,11.841,11.841,0,1,1,25.748,9Z" transform="translate(640.375 2441) rotate(-90)" fill="#fff"/>
  </g>
</svg>
