<svg xmlns="http://www.w3.org/2000/svg" width="24" height="24" viewBox="0 0 24 24">
  <path id="iconmonstr-gear-3" d="M24,13.616V10.384c-1.651-.587-2.693-.752-3.219-2.019h0c-.527-1.271.1-2.134.847-3.707L19.343,2.372c-1.561.742-2.433,1.375-3.707.847h0C14.366,2.693,14.2,1.643,13.616,0H10.384C9.8,1.635,9.635,2.692,8.365,3.219h0c-1.271.528-2.132-.1-3.707-.847L2.372,4.657c.745,1.568,1.375,2.434.847,3.707S1.635,9.8,0,10.384v3.232c1.632.58,2.692.749,3.219,2.019S3.1,17.8,2.372,19.342l2.285,2.286c1.562-.743,2.434-1.375,3.707-.847h0C9.635,21.307,9.8,22.36,10.384,24h3.232c.582-1.636.749-2.69,2.027-3.222h0c1.262-.524,2.12.1,3.7.851l2.285-2.286c-.743-1.563-1.375-2.433-.848-3.706S22.367,14.2,24,13.616ZM12,17a5,5,0,1,1,5-5A5,5,0,0,1,12,17Zm3-5a3,3,0,1,1-3-3A3,3,0,0,1,15,12Z"/>
</svg>
