<svg xmlns="http://www.w3.org/2000/svg" width="18.355" height="18.355" viewBox="0 0 18.355 18.355">
  <g id="Icon_feather-plus-square" data-name="Icon feather-plus-square" transform="translate(-3 -3)">
    <path id="パス_4681" data-name="パス 4681" d="M5.753,3H18.6a2.756,2.756,0,0,1,2.753,2.753V18.6A2.756,2.756,0,0,1,18.6,21.355H5.753A2.756,2.756,0,0,1,3,18.6V5.753A2.756,2.756,0,0,1,5.753,3ZM18.6,19.519a.919.919,0,0,0,.918-.918V5.753a.919.919,0,0,0-.918-.918H5.753a.919.919,0,0,0-.918.918V18.6a.919.919,0,0,0,.918.918Z"/>
    <path id="パス_4682" data-name="パス 4682" d="M17.418,19.677a.918.918,0,0,1-.918-.918V11.418a.918.918,0,1,1,1.835,0V18.76A.918.918,0,0,1,17.418,19.677Z" transform="translate(-5.24 -2.911)"/>
    <path id="パス_4683" data-name="パス 4683" d="M18.76,18.335H11.418a.918.918,0,1,1,0-1.835H18.76a.918.918,0,1,1,0,1.835Z" transform="translate(-2.911 -5.24)"/>
  </g>
</svg>
