<svg xmlns="http://www.w3.org/2000/svg" xmlns:xlink="http://www.w3.org/1999/xlink" width="450" height="120" viewBox="0 0 450 120">
  <defs>
    <clipPath id="clip-path">
      <rect id="Rectangle_6453" data-name="Rectangle 6453" width="450" height="120" rx="10" transform="translate(488 7662)" fill="#f56a6a" opacity="0.83"/>
    </clipPath>
    <clipPath id="clip-path-2">
      <rect width="484.854" height="129.854" fill="none"/>
    </clipPath>
  </defs>
  <g id="Mask_Group_243" data-name="Mask Group 243" transform="translate(-488 -7662)" opacity="0.99" clip-path="url(#clip-path)">
    <g id="Repeat_Grid_4" data-name="Repeat Grid 4" transform="translate(461.146 7652.146)" clip-path="url(#clip-path-2)">
      <g transform="translate(-477.146 -7652.146)">
        <line id="Line_2480" data-name="Line 2480" x1="50" y2="50" transform="translate(477.5 7652.5)" fill="none" stroke="#fff" stroke-width="1"/>
      </g>
      <g transform="translate(-462.146 -7652.146)">
        <line id="Line_2480-2" data-name="Line 2480" x1="50" y2="50" transform="translate(477.5 7652.5)" fill="none" stroke="#fff" stroke-width="1"/>
      </g>
      <g transform="translate(-447.146 -7652.146)">
        <line id="Line_2480-3" data-name="Line 2480" x1="50" y2="50" transform="translate(477.5 7652.5)" fill="none" stroke="#fff" stroke-width="1"/>
      </g>
      <g transform="translate(-432.146 -7652.146)">
        <line id="Line_2480-4" data-name="Line 2480" x1="50" y2="50" transform="translate(477.5 7652.5)" fill="none" stroke="#fff" stroke-width="1"/>
      </g>
      <g transform="translate(-417.146 -7652.146)">
        <line id="Line_2480-5" data-name="Line 2480" x1="50" y2="50" transform="translate(477.5 7652.5)" fill="none" stroke="#fff" stroke-width="1"/>
      </g>
      <g transform="translate(-402.146 -7652.146)">
        <line id="Line_2480-6" data-name="Line 2480" x1="50" y2="50" transform="translate(477.5 7652.5)" fill="none" stroke="#fff" stroke-width="1"/>
      </g>
      <g transform="translate(-387.146 -7652.146)">
        <line id="Line_2480-7" data-name="Line 2480" x1="50" y2="50" transform="translate(477.5 7652.5)" fill="none" stroke="#fff" stroke-width="1"/>
      </g>
      <g transform="translate(-372.146 -7652.146)">
        <line id="Line_2480-8" data-name="Line 2480" x1="50" y2="50" transform="translate(477.5 7652.5)" fill="none" stroke="#fff" stroke-width="1"/>
      </g>
      <g transform="translate(-357.146 -7652.146)">
        <line id="Line_2480-9" data-name="Line 2480" x1="50" y2="50" transform="translate(477.5 7652.5)" fill="none" stroke="#fff" stroke-width="1"/>
      </g>
      <g transform="translate(-342.146 -7652.146)">
        <line id="Line_2480-10" data-name="Line 2480" x1="50" y2="50" transform="translate(477.5 7652.5)" fill="none" stroke="#fff" stroke-width="1"/>
      </g>
      <g transform="translate(-327.146 -7652.146)">
        <line id="Line_2480-11" data-name="Line 2480" x1="50" y2="50" transform="translate(477.5 7652.5)" fill="none" stroke="#fff" stroke-width="1"/>
      </g>
      <g transform="translate(-312.146 -7652.146)">
        <line id="Line_2480-12" data-name="Line 2480" x1="50" y2="50" transform="translate(477.5 7652.5)" fill="none" stroke="#fff" stroke-width="1"/>
      </g>
      <g transform="translate(-297.146 -7652.146)">
        <line id="Line_2480-13" data-name="Line 2480" x1="50" y2="50" transform="translate(477.5 7652.5)" fill="none" stroke="#fff" stroke-width="1"/>
      </g>
      <g transform="translate(-282.146 -7652.146)">
        <line id="Line_2480-14" data-name="Line 2480" x1="50" y2="50" transform="translate(477.5 7652.5)" fill="none" stroke="#fff" stroke-width="1"/>
      </g>
      <g transform="translate(-267.146 -7652.146)">
        <line id="Line_2480-15" data-name="Line 2480" x1="50" y2="50" transform="translate(477.5 7652.5)" fill="none" stroke="#fff" stroke-width="1"/>
      </g>
      <g transform="translate(-252.146 -7652.146)">
        <line id="Line_2480-16" data-name="Line 2480" x1="50" y2="50" transform="translate(477.5 7652.5)" fill="none" stroke="#fff" stroke-width="1"/>
      </g>
      <g transform="translate(-237.146 -7652.146)">
        <line id="Line_2480-17" data-name="Line 2480" x1="50" y2="50" transform="translate(477.5 7652.5)" fill="none" stroke="#fff" stroke-width="1"/>
      </g>
      <g transform="translate(-222.146 -7652.146)">
        <line id="Line_2480-18" data-name="Line 2480" x1="50" y2="50" transform="translate(477.5 7652.5)" fill="none" stroke="#fff" stroke-width="1"/>
      </g>
      <g transform="translate(-207.146 -7652.146)">
        <line id="Line_2480-19" data-name="Line 2480" x1="50" y2="50" transform="translate(477.5 7652.5)" fill="none" stroke="#fff" stroke-width="1"/>
      </g>
      <g transform="translate(-192.146 -7652.146)">
        <line id="Line_2480-20" data-name="Line 2480" x1="50" y2="50" transform="translate(477.5 7652.5)" fill="none" stroke="#fff" stroke-width="1"/>
      </g>
      <g transform="translate(-177.146 -7652.146)">
        <line id="Line_2480-21" data-name="Line 2480" x1="50" y2="50" transform="translate(477.5 7652.5)" fill="none" stroke="#fff" stroke-width="1"/>
      </g>
      <g transform="translate(-162.146 -7652.146)">
        <line id="Line_2480-22" data-name="Line 2480" x1="50" y2="50" transform="translate(477.5 7652.5)" fill="none" stroke="#fff" stroke-width="1"/>
      </g>
      <g transform="translate(-147.146 -7652.146)">
        <line id="Line_2480-23" data-name="Line 2480" x1="50" y2="50" transform="translate(477.5 7652.5)" fill="none" stroke="#fff" stroke-width="1"/>
      </g>
      <g transform="translate(-132.146 -7652.146)">
        <line id="Line_2480-24" data-name="Line 2480" x1="50" y2="50" transform="translate(477.5 7652.5)" fill="none" stroke="#fff" stroke-width="1"/>
      </g>
      <g transform="translate(-117.146 -7652.146)">
        <line id="Line_2480-25" data-name="Line 2480" x1="50" y2="50" transform="translate(477.5 7652.5)" fill="none" stroke="#fff" stroke-width="1"/>
      </g>
      <g transform="translate(-102.146 -7652.146)">
        <line id="Line_2480-26" data-name="Line 2480" x1="50" y2="50" transform="translate(477.5 7652.5)" fill="none" stroke="#fff" stroke-width="1"/>
      </g>
      <g transform="translate(-87.146 -7652.146)">
        <line id="Line_2480-27" data-name="Line 2480" x1="50" y2="50" transform="translate(477.5 7652.5)" fill="none" stroke="#fff" stroke-width="1"/>
      </g>
      <g transform="translate(-72.146 -7652.146)">
        <line id="Line_2480-28" data-name="Line 2480" x1="50" y2="50" transform="translate(477.5 7652.5)" fill="none" stroke="#fff" stroke-width="1"/>
      </g>
      <g transform="translate(-57.146 -7652.146)">
        <line id="Line_2480-29" data-name="Line 2480" x1="50" y2="50" transform="translate(477.5 7652.5)" fill="none" stroke="#fff" stroke-width="1"/>
      </g>
      <g transform="translate(-42.146 -7652.146)">
        <line id="Line_2480-30" data-name="Line 2480" x1="50" y2="50" transform="translate(477.5 7652.5)" fill="none" stroke="#fff" stroke-width="1"/>
      </g>
      <g transform="translate(-27.146 -7652.146)">
        <line id="Line_2480-31" data-name="Line 2480" x1="50" y2="50" transform="translate(477.5 7652.5)" fill="none" stroke="#fff" stroke-width="1"/>
      </g>
      <g transform="translate(-12.146 -7652.146)">
        <line id="Line_2480-32" data-name="Line 2480" x1="50" y2="50" transform="translate(477.5 7652.5)" fill="none" stroke="#fff" stroke-width="1"/>
      </g>
      <g transform="translate(2.854 -7652.146)">
        <line id="Line_2480-33" data-name="Line 2480" x1="50" y2="50" transform="translate(477.5 7652.5)" fill="none" stroke="#fff" stroke-width="1"/>
      </g>
      <g transform="translate(-477.146 -7622.146)">
        <line id="Line_2480-34" data-name="Line 2480" x1="50" y2="50" transform="translate(477.5 7652.5)" fill="none" stroke="#fff" stroke-width="1"/>
      </g>
      <g transform="translate(-462.146 -7622.146)">
        <line id="Line_2480-35" data-name="Line 2480" x1="50" y2="50" transform="translate(477.5 7652.5)" fill="none" stroke="#fff" stroke-width="1"/>
      </g>
      <g transform="translate(-447.146 -7622.146)">
        <line id="Line_2480-36" data-name="Line 2480" x1="50" y2="50" transform="translate(477.5 7652.5)" fill="none" stroke="#fff" stroke-width="1"/>
      </g>
      <g transform="translate(-432.146 -7622.146)">
        <line id="Line_2480-37" data-name="Line 2480" x1="50" y2="50" transform="translate(477.5 7652.5)" fill="none" stroke="#fff" stroke-width="1"/>
      </g>
      <g transform="translate(-417.146 -7622.146)">
        <line id="Line_2480-38" data-name="Line 2480" x1="50" y2="50" transform="translate(477.5 7652.5)" fill="none" stroke="#fff" stroke-width="1"/>
      </g>
      <g transform="translate(-402.146 -7622.146)">
        <line id="Line_2480-39" data-name="Line 2480" x1="50" y2="50" transform="translate(477.5 7652.5)" fill="none" stroke="#fff" stroke-width="1"/>
      </g>
      <g transform="translate(-387.146 -7622.146)">
        <line id="Line_2480-40" data-name="Line 2480" x1="50" y2="50" transform="translate(477.5 7652.5)" fill="none" stroke="#fff" stroke-width="1"/>
      </g>
      <g transform="translate(-372.146 -7622.146)">
        <line id="Line_2480-41" data-name="Line 2480" x1="50" y2="50" transform="translate(477.5 7652.5)" fill="none" stroke="#fff" stroke-width="1"/>
      </g>
      <g transform="translate(-357.146 -7622.146)">
        <line id="Line_2480-42" data-name="Line 2480" x1="50" y2="50" transform="translate(477.5 7652.5)" fill="none" stroke="#fff" stroke-width="1"/>
      </g>
      <g transform="translate(-342.146 -7622.146)">
        <line id="Line_2480-43" data-name="Line 2480" x1="50" y2="50" transform="translate(477.5 7652.5)" fill="none" stroke="#fff" stroke-width="1"/>
      </g>
      <g transform="translate(-327.146 -7622.146)">
        <line id="Line_2480-44" data-name="Line 2480" x1="50" y2="50" transform="translate(477.5 7652.5)" fill="none" stroke="#fff" stroke-width="1"/>
      </g>
      <g transform="translate(-312.146 -7622.146)">
        <line id="Line_2480-45" data-name="Line 2480" x1="50" y2="50" transform="translate(477.5 7652.5)" fill="none" stroke="#fff" stroke-width="1"/>
      </g>
      <g transform="translate(-297.146 -7622.146)">
        <line id="Line_2480-46" data-name="Line 2480" x1="50" y2="50" transform="translate(477.5 7652.5)" fill="none" stroke="#fff" stroke-width="1"/>
      </g>
      <g transform="translate(-282.146 -7622.146)">
        <line id="Line_2480-47" data-name="Line 2480" x1="50" y2="50" transform="translate(477.5 7652.5)" fill="none" stroke="#fff" stroke-width="1"/>
      </g>
      <g transform="translate(-267.146 -7622.146)">
        <line id="Line_2480-48" data-name="Line 2480" x1="50" y2="50" transform="translate(477.5 7652.5)" fill="none" stroke="#fff" stroke-width="1"/>
      </g>
      <g transform="translate(-252.146 -7622.146)">
        <line id="Line_2480-49" data-name="Line 2480" x1="50" y2="50" transform="translate(477.5 7652.5)" fill="none" stroke="#fff" stroke-width="1"/>
      </g>
      <g transform="translate(-237.146 -7622.146)">
        <line id="Line_2480-50" data-name="Line 2480" x1="50" y2="50" transform="translate(477.5 7652.5)" fill="none" stroke="#fff" stroke-width="1"/>
      </g>
      <g transform="translate(-222.146 -7622.146)">
        <line id="Line_2480-51" data-name="Line 2480" x1="50" y2="50" transform="translate(477.5 7652.5)" fill="none" stroke="#fff" stroke-width="1"/>
      </g>
      <g transform="translate(-207.146 -7622.146)">
        <line id="Line_2480-52" data-name="Line 2480" x1="50" y2="50" transform="translate(477.5 7652.5)" fill="none" stroke="#fff" stroke-width="1"/>
      </g>
      <g transform="translate(-192.146 -7622.146)">
        <line id="Line_2480-53" data-name="Line 2480" x1="50" y2="50" transform="translate(477.5 7652.5)" fill="none" stroke="#fff" stroke-width="1"/>
      </g>
      <g transform="translate(-177.146 -7622.146)">
        <line id="Line_2480-54" data-name="Line 2480" x1="50" y2="50" transform="translate(477.5 7652.5)" fill="none" stroke="#fff" stroke-width="1"/>
      </g>
      <g transform="translate(-162.146 -7622.146)">
        <line id="Line_2480-55" data-name="Line 2480" x1="50" y2="50" transform="translate(477.5 7652.5)" fill="none" stroke="#fff" stroke-width="1"/>
      </g>
      <g transform="translate(-147.146 -7622.146)">
        <line id="Line_2480-56" data-name="Line 2480" x1="50" y2="50" transform="translate(477.5 7652.5)" fill="none" stroke="#fff" stroke-width="1"/>
      </g>
      <g transform="translate(-132.146 -7622.146)">
        <line id="Line_2480-57" data-name="Line 2480" x1="50" y2="50" transform="translate(477.5 7652.5)" fill="none" stroke="#fff" stroke-width="1"/>
      </g>
      <g transform="translate(-117.146 -7622.146)">
        <line id="Line_2480-58" data-name="Line 2480" x1="50" y2="50" transform="translate(477.5 7652.5)" fill="none" stroke="#fff" stroke-width="1"/>
      </g>
      <g transform="translate(-102.146 -7622.146)">
        <line id="Line_2480-59" data-name="Line 2480" x1="50" y2="50" transform="translate(477.5 7652.5)" fill="none" stroke="#fff" stroke-width="1"/>
      </g>
      <g transform="translate(-87.146 -7622.146)">
        <line id="Line_2480-60" data-name="Line 2480" x1="50" y2="50" transform="translate(477.5 7652.5)" fill="none" stroke="#fff" stroke-width="1"/>
      </g>
      <g transform="translate(-72.146 -7622.146)">
        <line id="Line_2480-61" data-name="Line 2480" x1="50" y2="50" transform="translate(477.5 7652.5)" fill="none" stroke="#fff" stroke-width="1"/>
      </g>
      <g transform="translate(-57.146 -7622.146)">
        <line id="Line_2480-62" data-name="Line 2480" x1="50" y2="50" transform="translate(477.5 7652.5)" fill="none" stroke="#fff" stroke-width="1"/>
      </g>
      <g transform="translate(-42.146 -7622.146)">
        <line id="Line_2480-63" data-name="Line 2480" x1="50" y2="50" transform="translate(477.5 7652.5)" fill="none" stroke="#fff" stroke-width="1"/>
      </g>
      <g transform="translate(-27.146 -7622.146)">
        <line id="Line_2480-64" data-name="Line 2480" x1="50" y2="50" transform="translate(477.5 7652.5)" fill="none" stroke="#fff" stroke-width="1"/>
      </g>
      <g transform="translate(-12.146 -7622.146)">
        <line id="Line_2480-65" data-name="Line 2480" x1="50" y2="50" transform="translate(477.5 7652.5)" fill="none" stroke="#fff" stroke-width="1"/>
      </g>
      <g transform="translate(2.854 -7622.146)">
        <line id="Line_2480-66" data-name="Line 2480" x1="50" y2="50" transform="translate(477.5 7652.5)" fill="none" stroke="#fff" stroke-width="1"/>
      </g>
      <g transform="translate(-477.146 -7592.146)">
        <line id="Line_2480-67" data-name="Line 2480" x1="50" y2="50" transform="translate(477.5 7652.5)" fill="none" stroke="#fff" stroke-width="1"/>
      </g>
      <g transform="translate(-462.146 -7592.146)">
        <line id="Line_2480-68" data-name="Line 2480" x1="50" y2="50" transform="translate(477.5 7652.5)" fill="none" stroke="#fff" stroke-width="1"/>
      </g>
      <g transform="translate(-447.146 -7592.146)">
        <line id="Line_2480-69" data-name="Line 2480" x1="50" y2="50" transform="translate(477.5 7652.5)" fill="none" stroke="#fff" stroke-width="1"/>
      </g>
      <g transform="translate(-432.146 -7592.146)">
        <line id="Line_2480-70" data-name="Line 2480" x1="50" y2="50" transform="translate(477.5 7652.5)" fill="none" stroke="#fff" stroke-width="1"/>
      </g>
      <g transform="translate(-417.146 -7592.146)">
        <line id="Line_2480-71" data-name="Line 2480" x1="50" y2="50" transform="translate(477.5 7652.5)" fill="none" stroke="#fff" stroke-width="1"/>
      </g>
      <g transform="translate(-402.146 -7592.146)">
        <line id="Line_2480-72" data-name="Line 2480" x1="50" y2="50" transform="translate(477.5 7652.5)" fill="none" stroke="#fff" stroke-width="1"/>
      </g>
      <g transform="translate(-387.146 -7592.146)">
        <line id="Line_2480-73" data-name="Line 2480" x1="50" y2="50" transform="translate(477.5 7652.5)" fill="none" stroke="#fff" stroke-width="1"/>
      </g>
      <g transform="translate(-372.146 -7592.146)">
        <line id="Line_2480-74" data-name="Line 2480" x1="50" y2="50" transform="translate(477.5 7652.5)" fill="none" stroke="#fff" stroke-width="1"/>
      </g>
      <g transform="translate(-357.146 -7592.146)">
        <line id="Line_2480-75" data-name="Line 2480" x1="50" y2="50" transform="translate(477.5 7652.5)" fill="none" stroke="#fff" stroke-width="1"/>
      </g>
      <g transform="translate(-342.146 -7592.146)">
        <line id="Line_2480-76" data-name="Line 2480" x1="50" y2="50" transform="translate(477.5 7652.5)" fill="none" stroke="#fff" stroke-width="1"/>
      </g>
      <g transform="translate(-327.146 -7592.146)">
        <line id="Line_2480-77" data-name="Line 2480" x1="50" y2="50" transform="translate(477.5 7652.5)" fill="none" stroke="#fff" stroke-width="1"/>
      </g>
      <g transform="translate(-312.146 -7592.146)">
        <line id="Line_2480-78" data-name="Line 2480" x1="50" y2="50" transform="translate(477.5 7652.5)" fill="none" stroke="#fff" stroke-width="1"/>
      </g>
      <g transform="translate(-297.146 -7592.146)">
        <line id="Line_2480-79" data-name="Line 2480" x1="50" y2="50" transform="translate(477.5 7652.5)" fill="none" stroke="#fff" stroke-width="1"/>
      </g>
      <g transform="translate(-282.146 -7592.146)">
        <line id="Line_2480-80" data-name="Line 2480" x1="50" y2="50" transform="translate(477.5 7652.5)" fill="none" stroke="#fff" stroke-width="1"/>
      </g>
      <g transform="translate(-267.146 -7592.146)">
        <line id="Line_2480-81" data-name="Line 2480" x1="50" y2="50" transform="translate(477.5 7652.5)" fill="none" stroke="#fff" stroke-width="1"/>
      </g>
      <g transform="translate(-252.146 -7592.146)">
        <line id="Line_2480-82" data-name="Line 2480" x1="50" y2="50" transform="translate(477.5 7652.5)" fill="none" stroke="#fff" stroke-width="1"/>
      </g>
      <g transform="translate(-237.146 -7592.146)">
        <line id="Line_2480-83" data-name="Line 2480" x1="50" y2="50" transform="translate(477.5 7652.5)" fill="none" stroke="#fff" stroke-width="1"/>
      </g>
      <g transform="translate(-222.146 -7592.146)">
        <line id="Line_2480-84" data-name="Line 2480" x1="50" y2="50" transform="translate(477.5 7652.5)" fill="none" stroke="#fff" stroke-width="1"/>
      </g>
      <g transform="translate(-207.146 -7592.146)">
        <line id="Line_2480-85" data-name="Line 2480" x1="50" y2="50" transform="translate(477.5 7652.5)" fill="none" stroke="#fff" stroke-width="1"/>
      </g>
      <g transform="translate(-192.146 -7592.146)">
        <line id="Line_2480-86" data-name="Line 2480" x1="50" y2="50" transform="translate(477.5 7652.5)" fill="none" stroke="#fff" stroke-width="1"/>
      </g>
      <g transform="translate(-177.146 -7592.146)">
        <line id="Line_2480-87" data-name="Line 2480" x1="50" y2="50" transform="translate(477.5 7652.5)" fill="none" stroke="#fff" stroke-width="1"/>
      </g>
      <g transform="translate(-162.146 -7592.146)">
        <line id="Line_2480-88" data-name="Line 2480" x1="50" y2="50" transform="translate(477.5 7652.5)" fill="none" stroke="#fff" stroke-width="1"/>
      </g>
      <g transform="translate(-147.146 -7592.146)">
        <line id="Line_2480-89" data-name="Line 2480" x1="50" y2="50" transform="translate(477.5 7652.5)" fill="none" stroke="#fff" stroke-width="1"/>
      </g>
      <g transform="translate(-132.146 -7592.146)">
        <line id="Line_2480-90" data-name="Line 2480" x1="50" y2="50" transform="translate(477.5 7652.5)" fill="none" stroke="#fff" stroke-width="1"/>
      </g>
      <g transform="translate(-117.146 -7592.146)">
        <line id="Line_2480-91" data-name="Line 2480" x1="50" y2="50" transform="translate(477.5 7652.5)" fill="none" stroke="#fff" stroke-width="1"/>
      </g>
      <g transform="translate(-102.146 -7592.146)">
        <line id="Line_2480-92" data-name="Line 2480" x1="50" y2="50" transform="translate(477.5 7652.5)" fill="none" stroke="#fff" stroke-width="1"/>
      </g>
      <g transform="translate(-87.146 -7592.146)">
        <line id="Line_2480-93" data-name="Line 2480" x1="50" y2="50" transform="translate(477.5 7652.5)" fill="none" stroke="#fff" stroke-width="1"/>
      </g>
      <g transform="translate(-72.146 -7592.146)">
        <line id="Line_2480-94" data-name="Line 2480" x1="50" y2="50" transform="translate(477.5 7652.5)" fill="none" stroke="#fff" stroke-width="1"/>
      </g>
      <g transform="translate(-57.146 -7592.146)">
        <line id="Line_2480-95" data-name="Line 2480" x1="50" y2="50" transform="translate(477.5 7652.5)" fill="none" stroke="#fff" stroke-width="1"/>
      </g>
      <g transform="translate(-42.146 -7592.146)">
        <line id="Line_2480-96" data-name="Line 2480" x1="50" y2="50" transform="translate(477.5 7652.5)" fill="none" stroke="#fff" stroke-width="1"/>
      </g>
      <g transform="translate(-27.146 -7592.146)">
        <line id="Line_2480-97" data-name="Line 2480" x1="50" y2="50" transform="translate(477.5 7652.5)" fill="none" stroke="#fff" stroke-width="1"/>
      </g>
      <g transform="translate(-12.146 -7592.146)">
        <line id="Line_2480-98" data-name="Line 2480" x1="50" y2="50" transform="translate(477.5 7652.5)" fill="none" stroke="#fff" stroke-width="1"/>
      </g>
      <g transform="translate(2.854 -7592.146)">
        <line id="Line_2480-99" data-name="Line 2480" x1="50" y2="50" transform="translate(477.5 7652.5)" fill="none" stroke="#fff" stroke-width="1"/>
      </g>
      <g transform="translate(-477.146 -7562.146)">
        <line id="Line_2480-100" data-name="Line 2480" x1="50" y2="50" transform="translate(477.5 7652.5)" fill="none" stroke="#fff" stroke-width="1"/>
      </g>
      <g transform="translate(-462.146 -7562.146)">
        <line id="Line_2480-101" data-name="Line 2480" x1="50" y2="50" transform="translate(477.5 7652.5)" fill="none" stroke="#fff" stroke-width="1"/>
      </g>
      <g transform="translate(-447.146 -7562.146)">
        <line id="Line_2480-102" data-name="Line 2480" x1="50" y2="50" transform="translate(477.5 7652.5)" fill="none" stroke="#fff" stroke-width="1"/>
      </g>
      <g transform="translate(-432.146 -7562.146)">
        <line id="Line_2480-103" data-name="Line 2480" x1="50" y2="50" transform="translate(477.5 7652.5)" fill="none" stroke="#fff" stroke-width="1"/>
      </g>
      <g transform="translate(-417.146 -7562.146)">
        <line id="Line_2480-104" data-name="Line 2480" x1="50" y2="50" transform="translate(477.5 7652.5)" fill="none" stroke="#fff" stroke-width="1"/>
      </g>
      <g transform="translate(-402.146 -7562.146)">
        <line id="Line_2480-105" data-name="Line 2480" x1="50" y2="50" transform="translate(477.5 7652.5)" fill="none" stroke="#fff" stroke-width="1"/>
      </g>
      <g transform="translate(-387.146 -7562.146)">
        <line id="Line_2480-106" data-name="Line 2480" x1="50" y2="50" transform="translate(477.5 7652.5)" fill="none" stroke="#fff" stroke-width="1"/>
      </g>
      <g transform="translate(-372.146 -7562.146)">
        <line id="Line_2480-107" data-name="Line 2480" x1="50" y2="50" transform="translate(477.5 7652.5)" fill="none" stroke="#fff" stroke-width="1"/>
      </g>
      <g transform="translate(-357.146 -7562.146)">
        <line id="Line_2480-108" data-name="Line 2480" x1="50" y2="50" transform="translate(477.5 7652.5)" fill="none" stroke="#fff" stroke-width="1"/>
      </g>
      <g transform="translate(-342.146 -7562.146)">
        <line id="Line_2480-109" data-name="Line 2480" x1="50" y2="50" transform="translate(477.5 7652.5)" fill="none" stroke="#fff" stroke-width="1"/>
      </g>
      <g transform="translate(-327.146 -7562.146)">
        <line id="Line_2480-110" data-name="Line 2480" x1="50" y2="50" transform="translate(477.5 7652.5)" fill="none" stroke="#fff" stroke-width="1"/>
      </g>
      <g transform="translate(-312.146 -7562.146)">
        <line id="Line_2480-111" data-name="Line 2480" x1="50" y2="50" transform="translate(477.5 7652.5)" fill="none" stroke="#fff" stroke-width="1"/>
      </g>
      <g transform="translate(-297.146 -7562.146)">
        <line id="Line_2480-112" data-name="Line 2480" x1="50" y2="50" transform="translate(477.5 7652.5)" fill="none" stroke="#fff" stroke-width="1"/>
      </g>
      <g transform="translate(-282.146 -7562.146)">
        <line id="Line_2480-113" data-name="Line 2480" x1="50" y2="50" transform="translate(477.5 7652.5)" fill="none" stroke="#fff" stroke-width="1"/>
      </g>
      <g transform="translate(-267.146 -7562.146)">
        <line id="Line_2480-114" data-name="Line 2480" x1="50" y2="50" transform="translate(477.5 7652.5)" fill="none" stroke="#fff" stroke-width="1"/>
      </g>
      <g transform="translate(-252.146 -7562.146)">
        <line id="Line_2480-115" data-name="Line 2480" x1="50" y2="50" transform="translate(477.5 7652.5)" fill="none" stroke="#fff" stroke-width="1"/>
      </g>
      <g transform="translate(-237.146 -7562.146)">
        <line id="Line_2480-116" data-name="Line 2480" x1="50" y2="50" transform="translate(477.5 7652.5)" fill="none" stroke="#fff" stroke-width="1"/>
      </g>
      <g transform="translate(-222.146 -7562.146)">
        <line id="Line_2480-117" data-name="Line 2480" x1="50" y2="50" transform="translate(477.5 7652.5)" fill="none" stroke="#fff" stroke-width="1"/>
      </g>
      <g transform="translate(-207.146 -7562.146)">
        <line id="Line_2480-118" data-name="Line 2480" x1="50" y2="50" transform="translate(477.5 7652.5)" fill="none" stroke="#fff" stroke-width="1"/>
      </g>
      <g transform="translate(-192.146 -7562.146)">
        <line id="Line_2480-119" data-name="Line 2480" x1="50" y2="50" transform="translate(477.5 7652.5)" fill="none" stroke="#fff" stroke-width="1"/>
      </g>
      <g transform="translate(-177.146 -7562.146)">
        <line id="Line_2480-120" data-name="Line 2480" x1="50" y2="50" transform="translate(477.5 7652.5)" fill="none" stroke="#fff" stroke-width="1"/>
      </g>
      <g transform="translate(-162.146 -7562.146)">
        <line id="Line_2480-121" data-name="Line 2480" x1="50" y2="50" transform="translate(477.5 7652.5)" fill="none" stroke="#fff" stroke-width="1"/>
      </g>
      <g transform="translate(-147.146 -7562.146)">
        <line id="Line_2480-122" data-name="Line 2480" x1="50" y2="50" transform="translate(477.5 7652.5)" fill="none" stroke="#fff" stroke-width="1"/>
      </g>
      <g transform="translate(-132.146 -7562.146)">
        <line id="Line_2480-123" data-name="Line 2480" x1="50" y2="50" transform="translate(477.5 7652.5)" fill="none" stroke="#fff" stroke-width="1"/>
      </g>
      <g transform="translate(-117.146 -7562.146)">
        <line id="Line_2480-124" data-name="Line 2480" x1="50" y2="50" transform="translate(477.5 7652.5)" fill="none" stroke="#fff" stroke-width="1"/>
      </g>
      <g transform="translate(-102.146 -7562.146)">
        <line id="Line_2480-125" data-name="Line 2480" x1="50" y2="50" transform="translate(477.5 7652.5)" fill="none" stroke="#fff" stroke-width="1"/>
      </g>
      <g transform="translate(-87.146 -7562.146)">
        <line id="Line_2480-126" data-name="Line 2480" x1="50" y2="50" transform="translate(477.5 7652.5)" fill="none" stroke="#fff" stroke-width="1"/>
      </g>
      <g transform="translate(-72.146 -7562.146)">
        <line id="Line_2480-127" data-name="Line 2480" x1="50" y2="50" transform="translate(477.5 7652.5)" fill="none" stroke="#fff" stroke-width="1"/>
      </g>
      <g transform="translate(-57.146 -7562.146)">
        <line id="Line_2480-128" data-name="Line 2480" x1="50" y2="50" transform="translate(477.5 7652.5)" fill="none" stroke="#fff" stroke-width="1"/>
      </g>
      <g transform="translate(-42.146 -7562.146)">
        <line id="Line_2480-129" data-name="Line 2480" x1="50" y2="50" transform="translate(477.5 7652.5)" fill="none" stroke="#fff" stroke-width="1"/>
      </g>
      <g transform="translate(-27.146 -7562.146)">
        <line id="Line_2480-130" data-name="Line 2480" x1="50" y2="50" transform="translate(477.5 7652.5)" fill="none" stroke="#fff" stroke-width="1"/>
      </g>
      <g transform="translate(-12.146 -7562.146)">
        <line id="Line_2480-131" data-name="Line 2480" x1="50" y2="50" transform="translate(477.5 7652.5)" fill="none" stroke="#fff" stroke-width="1"/>
      </g>
      <g transform="translate(2.854 -7562.146)">
        <line id="Line_2480-132" data-name="Line 2480" x1="50" y2="50" transform="translate(477.5 7652.5)" fill="none" stroke="#fff" stroke-width="1"/>
      </g>
      <g transform="translate(-477.146 -7532.146)">
        <line id="Line_2480-133" data-name="Line 2480" x1="50" y2="50" transform="translate(477.5 7652.5)" fill="none" stroke="#fff" stroke-width="1"/>
      </g>
      <g transform="translate(-462.146 -7532.146)">
        <line id="Line_2480-134" data-name="Line 2480" x1="50" y2="50" transform="translate(477.5 7652.5)" fill="none" stroke="#fff" stroke-width="1"/>
      </g>
      <g transform="translate(-447.146 -7532.146)">
        <line id="Line_2480-135" data-name="Line 2480" x1="50" y2="50" transform="translate(477.5 7652.5)" fill="none" stroke="#fff" stroke-width="1"/>
      </g>
      <g transform="translate(-432.146 -7532.146)">
        <line id="Line_2480-136" data-name="Line 2480" x1="50" y2="50" transform="translate(477.5 7652.5)" fill="none" stroke="#fff" stroke-width="1"/>
      </g>
      <g transform="translate(-417.146 -7532.146)">
        <line id="Line_2480-137" data-name="Line 2480" x1="50" y2="50" transform="translate(477.5 7652.5)" fill="none" stroke="#fff" stroke-width="1"/>
      </g>
      <g transform="translate(-402.146 -7532.146)">
        <line id="Line_2480-138" data-name="Line 2480" x1="50" y2="50" transform="translate(477.5 7652.5)" fill="none" stroke="#fff" stroke-width="1"/>
      </g>
      <g transform="translate(-387.146 -7532.146)">
        <line id="Line_2480-139" data-name="Line 2480" x1="50" y2="50" transform="translate(477.5 7652.5)" fill="none" stroke="#fff" stroke-width="1"/>
      </g>
      <g transform="translate(-372.146 -7532.146)">
        <line id="Line_2480-140" data-name="Line 2480" x1="50" y2="50" transform="translate(477.5 7652.5)" fill="none" stroke="#fff" stroke-width="1"/>
      </g>
      <g transform="translate(-357.146 -7532.146)">
        <line id="Line_2480-141" data-name="Line 2480" x1="50" y2="50" transform="translate(477.5 7652.5)" fill="none" stroke="#fff" stroke-width="1"/>
      </g>
      <g transform="translate(-342.146 -7532.146)">
        <line id="Line_2480-142" data-name="Line 2480" x1="50" y2="50" transform="translate(477.5 7652.5)" fill="none" stroke="#fff" stroke-width="1"/>
      </g>
      <g transform="translate(-327.146 -7532.146)">
        <line id="Line_2480-143" data-name="Line 2480" x1="50" y2="50" transform="translate(477.5 7652.5)" fill="none" stroke="#fff" stroke-width="1"/>
      </g>
      <g transform="translate(-312.146 -7532.146)">
        <line id="Line_2480-144" data-name="Line 2480" x1="50" y2="50" transform="translate(477.5 7652.5)" fill="none" stroke="#fff" stroke-width="1"/>
      </g>
      <g transform="translate(-297.146 -7532.146)">
        <line id="Line_2480-145" data-name="Line 2480" x1="50" y2="50" transform="translate(477.5 7652.5)" fill="none" stroke="#fff" stroke-width="1"/>
      </g>
      <g transform="translate(-282.146 -7532.146)">
        <line id="Line_2480-146" data-name="Line 2480" x1="50" y2="50" transform="translate(477.5 7652.5)" fill="none" stroke="#fff" stroke-width="1"/>
      </g>
      <g transform="translate(-267.146 -7532.146)">
        <line id="Line_2480-147" data-name="Line 2480" x1="50" y2="50" transform="translate(477.5 7652.5)" fill="none" stroke="#fff" stroke-width="1"/>
      </g>
      <g transform="translate(-252.146 -7532.146)">
        <line id="Line_2480-148" data-name="Line 2480" x1="50" y2="50" transform="translate(477.5 7652.5)" fill="none" stroke="#fff" stroke-width="1"/>
      </g>
      <g transform="translate(-237.146 -7532.146)">
        <line id="Line_2480-149" data-name="Line 2480" x1="50" y2="50" transform="translate(477.5 7652.5)" fill="none" stroke="#fff" stroke-width="1"/>
      </g>
      <g transform="translate(-222.146 -7532.146)">
        <line id="Line_2480-150" data-name="Line 2480" x1="50" y2="50" transform="translate(477.5 7652.5)" fill="none" stroke="#fff" stroke-width="1"/>
      </g>
      <g transform="translate(-207.146 -7532.146)">
        <line id="Line_2480-151" data-name="Line 2480" x1="50" y2="50" transform="translate(477.5 7652.5)" fill="none" stroke="#fff" stroke-width="1"/>
      </g>
      <g transform="translate(-192.146 -7532.146)">
        <line id="Line_2480-152" data-name="Line 2480" x1="50" y2="50" transform="translate(477.5 7652.5)" fill="none" stroke="#fff" stroke-width="1"/>
      </g>
      <g transform="translate(-177.146 -7532.146)">
        <line id="Line_2480-153" data-name="Line 2480" x1="50" y2="50" transform="translate(477.5 7652.5)" fill="none" stroke="#fff" stroke-width="1"/>
      </g>
      <g transform="translate(-162.146 -7532.146)">
        <line id="Line_2480-154" data-name="Line 2480" x1="50" y2="50" transform="translate(477.5 7652.5)" fill="none" stroke="#fff" stroke-width="1"/>
      </g>
      <g transform="translate(-147.146 -7532.146)">
        <line id="Line_2480-155" data-name="Line 2480" x1="50" y2="50" transform="translate(477.5 7652.5)" fill="none" stroke="#fff" stroke-width="1"/>
      </g>
      <g transform="translate(-132.146 -7532.146)">
        <line id="Line_2480-156" data-name="Line 2480" x1="50" y2="50" transform="translate(477.5 7652.5)" fill="none" stroke="#fff" stroke-width="1"/>
      </g>
      <g transform="translate(-117.146 -7532.146)">
        <line id="Line_2480-157" data-name="Line 2480" x1="50" y2="50" transform="translate(477.5 7652.5)" fill="none" stroke="#fff" stroke-width="1"/>
      </g>
      <g transform="translate(-102.146 -7532.146)">
        <line id="Line_2480-158" data-name="Line 2480" x1="50" y2="50" transform="translate(477.5 7652.5)" fill="none" stroke="#fff" stroke-width="1"/>
      </g>
      <g transform="translate(-87.146 -7532.146)">
        <line id="Line_2480-159" data-name="Line 2480" x1="50" y2="50" transform="translate(477.5 7652.5)" fill="none" stroke="#fff" stroke-width="1"/>
      </g>
      <g transform="translate(-72.146 -7532.146)">
        <line id="Line_2480-160" data-name="Line 2480" x1="50" y2="50" transform="translate(477.5 7652.5)" fill="none" stroke="#fff" stroke-width="1"/>
      </g>
      <g transform="translate(-57.146 -7532.146)">
        <line id="Line_2480-161" data-name="Line 2480" x1="50" y2="50" transform="translate(477.5 7652.5)" fill="none" stroke="#fff" stroke-width="1"/>
      </g>
      <g transform="translate(-42.146 -7532.146)">
        <line id="Line_2480-162" data-name="Line 2480" x1="50" y2="50" transform="translate(477.5 7652.5)" fill="none" stroke="#fff" stroke-width="1"/>
      </g>
      <g transform="translate(-27.146 -7532.146)">
        <line id="Line_2480-163" data-name="Line 2480" x1="50" y2="50" transform="translate(477.5 7652.5)" fill="none" stroke="#fff" stroke-width="1"/>
      </g>
      <g transform="translate(-12.146 -7532.146)">
        <line id="Line_2480-164" data-name="Line 2480" x1="50" y2="50" transform="translate(477.5 7652.5)" fill="none" stroke="#fff" stroke-width="1"/>
      </g>
      <g transform="translate(2.854 -7532.146)">
        <line id="Line_2480-165" data-name="Line 2480" x1="50" y2="50" transform="translate(477.5 7652.5)" fill="none" stroke="#fff" stroke-width="1"/>
      </g>
    </g>
  </g>
</svg>
