<svg xmlns="http://www.w3.org/2000/svg" width="74" height="74" viewBox="0 0 74 74">
  <g id="Group_4380" data-name="Group 4380" transform="translate(-546 -2717)">
    <g id="Ellipse_85" data-name="Ellipse 85" transform="translate(546 2717)" fill="#fff" stroke="#111" stroke-width="2">
      <circle cx="37" cy="37" r="37" stroke="none"/>
      <circle cx="37" cy="37" r="36" fill="none"/>
    </g>
    <text id="check" transform="translate(564 2768)" fill="#111" font-size="14" font-family="YuGothic-Medium, Yu Gothic" font-weight="500"><tspan x="0" y="0">check</tspan></text>
    <g id="Group_4323" data-name="Group 4323" transform="translate(0.25 -32)">
      <g id="Icon_feather-check-square" data-name="Icon feather-check-square" transform="translate(570.75 2764.19)">
        <path id="パス_4658" data-name="パス 4658" d="M15.524,15.071a.878.878,0,0,1-.623-.258l-2.643-2.643A.881.881,0,1,1,13.5,10.925l2.02,2.02L23.71,4.758A.881.881,0,0,1,24.956,6l-8.81,8.81A.878.878,0,0,1,15.524,15.071Z" transform="translate(-3.714 -0.619)"/>
        <path id="パス_4659" data-name="パス 4659" d="M17.976,20.619H5.643A2.646,2.646,0,0,1,3,17.976V5.643A2.646,2.646,0,0,1,5.643,3h9.69a.881.881,0,1,1,0,1.762H5.643a.882.882,0,0,0-.881.881V17.976a.882.882,0,0,0,.881.881H17.976a.882.882,0,0,0,.881-.881V11.81a.881.881,0,1,1,1.762,0v6.167A2.646,2.646,0,0,1,17.976,20.619Z"/>
      </g>
    </g>
  </g>
</svg>
