<svg xmlns="http://www.w3.org/2000/svg" width="31.169" height="49.871" viewBox="0 0 31.169 49.871">
  <path id="Icon_awesome-mobile-alt" data-name="Icon awesome-mobile-alt" d="M26.494,0H4.675A4.677,4.677,0,0,0,0,4.675V45.2a4.677,4.677,0,0,0,4.675,4.675H26.494A4.677,4.677,0,0,0,31.169,45.2V4.675A4.677,4.677,0,0,0,26.494,0ZM15.585,46.754A3.117,3.117,0,1,1,18.7,43.637,3.114,3.114,0,0,1,15.585,46.754Zm10.909-10.52A1.172,1.172,0,0,1,25.325,37.4H5.844a1.172,1.172,0,0,1-1.169-1.169V5.844A1.172,1.172,0,0,1,5.844,4.675H25.325a1.172,1.172,0,0,1,1.169,1.169Z" fill="#fff"/>
</svg>
